<mxfile host="app.diagrams.net" modified="2023-08-10T16:14:57.763Z" agent="Mozilla/5.0 (X11; Linux x86_64) AppleWebKit/537.36 (KHTML, like Gecko) Chrome/115.0.0.0 Safari/537.36" etag="od_CFgNYg3mtRWSPATgh" version="21.6.8" type="device">
  <diagram name="Page-1" id="FHFFVhyL4Yeo4j9FJkin">
    <mxGraphModel dx="2331" dy="2220" grid="1" gridSize="10" guides="1" tooltips="1" connect="1" arrows="1" fold="1" page="1" pageScale="1" pageWidth="850" pageHeight="1100" math="0" shadow="0">
      <root>
        <mxCell id="0" />
        <mxCell id="1" parent="0" />
        <mxCell id="0dQcOnzFlfhM4XbEcG6D-12" value="" style="rounded=0;whiteSpace=wrap;html=1;dashed=1;" vertex="1" parent="1">
          <mxGeometry x="630" y="-50" width="420" height="430" as="geometry" />
        </mxCell>
        <mxCell id="0dQcOnzFlfhM4XbEcG6D-1" value="" style="rounded=1;whiteSpace=wrap;html=1;" vertex="1" parent="1">
          <mxGeometry x="30" y="20" width="360" height="340" as="geometry" />
        </mxCell>
        <mxCell id="0dQcOnzFlfhM4XbEcG6D-2" value="&lt;h1&gt;Sensor&lt;/h1&gt;" style="text;html=1;strokeColor=none;fillColor=none;align=center;verticalAlign=middle;whiteSpace=wrap;rounded=0;" vertex="1" parent="1">
          <mxGeometry x="180" y="30" width="60" height="30" as="geometry" />
        </mxCell>
        <mxCell id="0dQcOnzFlfhM4XbEcG6D-4" value="" style="rounded=1;whiteSpace=wrap;html=1;" vertex="1" parent="1">
          <mxGeometry x="660" y="10" width="360" height="340" as="geometry" />
        </mxCell>
        <mxCell id="0dQcOnzFlfhM4XbEcG6D-5" value="&lt;h1&gt;API&lt;/h1&gt;" style="text;html=1;strokeColor=none;fillColor=none;align=center;verticalAlign=middle;whiteSpace=wrap;rounded=0;" vertex="1" parent="1">
          <mxGeometry x="810" y="20" width="60" height="30" as="geometry" />
        </mxCell>
        <mxCell id="0dQcOnzFlfhM4XbEcG6D-8" value="" style="rounded=1;whiteSpace=wrap;html=1;" vertex="1" parent="1">
          <mxGeometry x="520" y="-660" width="640" height="490" as="geometry" />
        </mxCell>
        <mxCell id="0dQcOnzFlfhM4XbEcG6D-7" value="&lt;h1&gt;Dashboard&lt;/h1&gt;" style="text;html=1;strokeColor=none;fillColor=none;align=center;verticalAlign=middle;whiteSpace=wrap;rounded=0;" vertex="1" parent="1">
          <mxGeometry x="800" y="-630" width="60" height="30" as="geometry" />
        </mxCell>
        <mxCell id="0dQcOnzFlfhM4XbEcG6D-9" value="" style="rounded=1;whiteSpace=wrap;html=1;" vertex="1" parent="1">
          <mxGeometry x="1250" y="10" width="360" height="340" as="geometry" />
        </mxCell>
        <mxCell id="0dQcOnzFlfhM4XbEcG6D-10" value="&lt;h1&gt;Database&lt;/h1&gt;" style="text;html=1;strokeColor=none;fillColor=none;align=center;verticalAlign=middle;whiteSpace=wrap;rounded=0;" vertex="1" parent="1">
          <mxGeometry x="1400" y="20" width="60" height="30" as="geometry" />
        </mxCell>
        <mxCell id="0dQcOnzFlfhM4XbEcG6D-11" value="LogEvent" style="rounded=0;whiteSpace=wrap;html=1;" vertex="1" parent="1">
          <mxGeometry x="280" y="105" width="90" height="30" as="geometry" />
        </mxCell>
        <mxCell id="0dQcOnzFlfhM4XbEcG6D-13" value="API Key" style="text;html=1;strokeColor=none;fillColor=none;align=center;verticalAlign=middle;whiteSpace=wrap;rounded=0;" vertex="1" parent="1">
          <mxGeometry x="810" y="-30" width="60" height="30" as="geometry" />
        </mxCell>
        <mxCell id="0dQcOnzFlfhM4XbEcG6D-15" value="&lt;h4&gt;&lt;br&gt;&lt;/h4&gt;" style="rounded=0;whiteSpace=wrap;html=1;" vertex="1" parent="1">
          <mxGeometry x="680" y="65" width="140" height="245" as="geometry" />
        </mxCell>
        <mxCell id="0dQcOnzFlfhM4XbEcG6D-16" value="&lt;h4&gt;End Points&lt;/h4&gt;" style="text;html=1;strokeColor=none;fillColor=none;align=center;verticalAlign=middle;whiteSpace=wrap;rounded=0;" vertex="1" parent="1">
          <mxGeometry x="705" y="70" width="90" height="30" as="geometry" />
        </mxCell>
        <mxCell id="0dQcOnzFlfhM4XbEcG6D-17" value="LogEvent" style="rounded=0;whiteSpace=wrap;html=1;" vertex="1" parent="1">
          <mxGeometry x="715" y="100" width="70" height="40" as="geometry" />
        </mxCell>
        <mxCell id="0dQcOnzFlfhM4XbEcG6D-20" style="edgeStyle=orthogonalEdgeStyle;rounded=0;orthogonalLoop=1;jettySize=auto;html=1;entryX=0;entryY=0.5;entryDx=0;entryDy=0;" edge="1" parent="1" source="0dQcOnzFlfhM4XbEcG6D-11" target="0dQcOnzFlfhM4XbEcG6D-17">
          <mxGeometry relative="1" as="geometry" />
        </mxCell>
      </root>
    </mxGraphModel>
  </diagram>
</mxfile>
